<svg xmlns="http://www.w3.org/2000/svg" fill-rule="evenodd" stroke-linejoin="round" stroke-miterlimit="2" clip-rule="evenodd" viewBox="0 0 2134 1492" width="2134" height="1492"><path fill="none" d="M0 0h2133.33v1491.67H0z"/><path fill="#153677" d="M2070.83 623.056v796.406h-1390L62.498 1062.468V73.58h1056.61l951.719 549.476z"/><g fill-rule="nonzero"><path fill="#fff" d="M729.905 1288.11c16.454 0 28.642-12.798 28.642-29.252 0-15.844-12.188-28.642-28.642-28.642-16.758 0-29.251 12.798-29.251 28.642 0 16.454 12.493 29.252 29.251 29.252zm122.49-108.78v56.37c-33.517 0-56.674-25.9-56.674-54.542 0-23.157 14.93-43.877 34.736-51.494 6.399-2.438 13.712-3.657 42.963-3.657h4.57v-50.275h-4.57c-30.47 0-38.697.914-45.096 2.133-47.533 8.836-84.402 50.275-84.402 102.989 0 58.198 45.705 105.122 108.473 105.122h51.8V1179.33h-51.8zm60.027 41.44v65.206h51.799v-30.47h45.705v30.47h51.8v-210.244c-86.84 0-149.304 44.791-149.304 145.038zm52.408-15.54c3.047-33.822 17.064-57.893 45.096-68.863v68.863H964.83zm106.04 80.74h51.799v-158.445c19.806.914 42.658 14.93 42.658 44.182v114.263h47.534v-114.263c0-29.252 22.852-43.268 42.658-44.182v158.445h51.799v-210.244h-51.799c-28.337 0-55.76 15.235-66.425 30.47-10.665-15.235-38.088-30.47-66.425-30.47h-51.799v210.244zM1449 1126v-50.275h-132.546v210.244H1449v-50.276h-80.746v-30.47h54.846v-48.752h-54.846V1126H1449zm7.92 159.97h67.948c35.346 0 64.292-25.9 64.292-64.597 0-17.977-6.094-34.736-18.586-45.401-11.274-9.75-28.033-14.625-48.753-20.719-9.445-2.743-13.711-8.532-13.711-16.149 0-7.313 3.961-13.103 14.625-13.103h40.526v-50.275h-28.338c-21.024 0-26.813.609-31.993 1.828-30.47 6.399-46.62 31.384-46.62 61.245 0 17.063 5.18 31.994 16.454 43.572 10.36 10.665 22.853 14.626 50.276 23.767 7.313 2.438 14.321 7.922 14.321 16.149 0 7.313-5.789 13.407-18.587 13.407h-61.854v50.276z"/><path fill="#ead377" d="M746.693 1008.55h51.799V850.105c19.806.915 42.659 14.931 42.659 44.182v114.263h47.533V894.287c0-29.251 22.853-43.267 42.658-44.182v158.445h51.8V798.306h-51.8c-28.337 0-55.76 15.235-66.425 30.47-10.664-15.235-38.087-30.47-66.425-30.47h-51.799v210.244zm378.137-159.973v-50.276H992.285v210.244h132.545V958.27h-80.746v-30.471h54.846v-48.752h-54.846v-30.47h80.746zm8.23 94.762v65.206h51.799v-30.47h45.705v30.47h51.8V798.301c-86.84 0-149.304 44.791-149.304 145.038zm52.409-15.54c3.047-33.822 17.063-57.893 45.095-68.862v68.862h-45.095zm106.031 80.751h36.564c28.033 0 44.791-2.437 58.198-7.008 38.392-13.102 69.777-49.666 69.777-97.809 0-56.065-42.658-95.676-85.621-102.989-8.532-1.524-22.548-2.438-42.354-2.438H1291.5v210.244zm51.799-50.275V848.582c39.611 0 60.94 25.9 60.94 54.846 0 28.947-21.329 54.847-60.94 54.847zm226.091 54.845c61.55 0 110.302-48.752 110.302-109.997 0-60.941-48.752-109.388-110.302-109.388-61.245 0-109.693 48.447-109.693 109.388 0 61.245 48.448 109.997 109.693 109.997zm.305-50.581c-32.299 0-58.198-26.509-58.198-58.807 0-31.994 25.899-59.417 58.198-59.417 31.689 0 58.198 27.423 58.198 59.417 0 32.298-26.509 58.807-58.198 58.807zm189.215 49.051c17.368 0 35.041-5.789 45.706-19.805 10.664 14.016 28.337 19.805 45.705 19.805 35.65 0 72.824-24.376 72.824-82.269V798.299h-51.8v131.022c0 24.376-8.227 31.994-20.415 31.994-12.188 0-20.415-7.618-20.415-31.994V798.299h-51.799v131.022c0 24.376-8.227 31.994-20.415 31.994-12.188 0-20.415-7.618-20.415-31.994V798.299h-51.799v131.022c0 57.893 37.173 82.269 72.823 82.269zM746.693 726.548h81.051c42.658 0 68.253-28.337 68.253-60.94 0-19.501-9.141-37.783-22.548-47.229 12.493-9.75 17.063-24.985 17.063-38.697 0-27.728-18.587-58.198-56.37-62.464-8.531-.914-18.282-.914-29.251-.914h-58.198v210.244zm51.799-129.498v-31.994h24.072c7.617 0 16.149 6.094 16.149 16.15 0 10.055-8.532 15.844-16.149 15.844h-24.072zm0 80.746v-31.994h29.252c7.922 0 16.454 5.485 16.454 16.15 0 10.664-8.532 15.844-16.454 15.844h-29.252zm218.468-31.079c17.977-11.884 28.337-30.166 28.337-54.237 0-41.135-30.166-70.387-71.605-74.957-6.399-.609-13.102-1.219-38.088-1.219h-33.517v210.244h51.799v-56.369c24.376 0 41.135 19.196 41.135 42.658v13.711h51.799v-13.711c0-29.861-10.664-52.104-29.86-66.12zm-63.074-81.661c21.329 0 39.611 7.618 39.611 28.947s-18.282 27.423-39.611 27.423v-56.37zm204.464 166.063c61.55 0 110.302-48.752 110.302-109.997 0-60.941-48.752-109.388-110.302-109.388-61.245 0-109.692 48.447-109.692 109.388 0 61.245 48.447 109.997 109.692 109.997zm.305-50.581c-32.299 0-58.198-26.509-58.198-58.807 0-31.994 25.899-59.417 58.198-59.417 31.689 0 58.198 27.423 58.198 59.417 0 32.298-26.509 58.807-58.198 58.807zm115.475-19.196v65.206h51.799v-30.47h45.705v30.47h51.8V516.304c-86.84 0-149.304 44.791-149.304 145.038zm52.409-15.54c3.047-33.821 17.063-57.893 45.095-68.862v68.862h-45.095zm106.041 80.746h36.564c28.033 0 44.791-2.437 58.198-7.008 38.392-13.102 69.777-49.666 69.777-97.809 0-56.065-42.659-95.676-85.621-102.989-8.532-1.524-22.548-2.438-42.354-2.438h-36.564v210.244zm51.799-50.275V566.58c39.611 0 60.94 25.9 60.94 54.846 0 28.947-21.329 54.847-60.94 54.847z"/></g><path fill="#fff" d="M643.854 255.247c6.132 7.058 11.189 14.113 12.322 23.867-24.641 15.921-78.973 26.242-112.065 27.971a8.383 8.383 0 0 0-2.38.477c-123.549 44.12-242.858.367-295.872-25.72-9.162-4.509-16.277-8.518-21.241-12.435-3.259-2.571-5.57-4.705-6.009-7.298-.377-2.229 1.04-4.324 3.142-6.924 3.64-4.502 9.508-9.41 17.535-15.165 11.499-8.243 26.834-11.336 52.728-10.951 28.177.419 67.947 5.152 126.849 13.326a8.424 8.424 0 0 0 1.506.072c133.082-5.649 155.484-5.035 223.485 12.78zm5.742 60.354c3.025 3.95 5.829 8.725 8.884 12.56-.94 60.729-38.877 98.087-92.959 116.13-57.197 19.082-132.062 16.969-202.407-2.014a8.417 8.417 0 0 0-1.584-.267c-46.354-3.319-90.682-11.959-110.845-19.564-8.532-3.218-14.371-6.568-18.001-10.153-2.306-2.279-3.519-4.486-3.534-6.758-.022-3.126 1.806-6.012 4.068-8.69 4.578-5.421 11.406-9.771 16.716-12.029 33.172-14.105 84.174-26.865 200.119-32.039a8.374 8.374 0 0 0 2.251-.413c55.379-18.275 111.679-13.605 197.292-36.763zm66.073-60.354c68-17.815 90.402-18.429 223.484-12.78a8.424 8.424 0 0 0 1.506-.072c58.902-8.174 98.672-12.907 126.849-13.326 25.894-.385 41.229 2.708 52.728 10.951 8.027 5.755 13.895 10.663 17.535 15.165 2.102 2.6 3.519 4.695 3.142 6.924-.439 2.593-2.75 4.727-6.009 7.298-4.964 3.917-12.079 7.926-21.241 12.435-53.014 26.087-172.323 69.84-295.872 25.72a8.383 8.383 0 0 0-2.38-.477c-33.092-1.729-87.423-12.05-112.064-27.969 1.132-9.756 6.189-16.811 12.322-23.869zm-5.742 60.354c85.612 23.158 141.912 18.488 197.291 36.763.728.24 1.485.379 2.251.413 115.945 5.174 166.947 17.934 200.119 32.039 5.31 2.258 12.138 6.608 16.716 12.029 2.262 2.678 4.09 5.564 4.068 8.69-.015 2.272-1.228 4.479-3.534 6.758-3.63 3.585-9.469 6.935-18.001 10.153-20.163 7.605-64.491 16.245-110.845 19.564a8.417 8.417 0 0 0-1.584.267c-70.345 18.983-145.21 21.096-202.407 2.014-54.082-18.043-92.019-55.401-92.958-116.129 3.054-3.836 5.858-8.611 8.884-12.561z"/><path fill="#ead377" d="M643.822 237.93c.864-3.73 2.692-7.206 5.28-10.271-10.378-3.287-17.724-11.375-17.724-20.823 0-12.359 12.572-22.393 28.057-22.393.901 0 1.792.034 2.672.101v-7.729s11.769 3.261 17.654 3.261 17.654-3.261 17.654-3.261v7.729c.88-.067 1.771-.101 2.672-.101 15.485 0 28.057 10.034 28.057 22.393 0 9.448-7.346 17.536-17.724 20.823 2.588 3.065 4.416 6.541 5.28 10.271-2.207.571-4.46 1.16-6.765 1.768a8.377 8.377 0 0 0-4.12 2.53c-10.498 11.796-18.455 23.494-18.455 41.066a8.375 8.375 0 0 0 3.279 6.646c3.866 2.964 8.689 5.788 14.22 8.45a8.367 8.367 0 0 0-2.717 1.816c-5.121 5.121-9.29 13.785-14.411 18.907a8.374 8.374 0 0 0-2.453 5.879c-.135 26.591 5.818 49.375 16.606 68.557-3.81 15.223-8.136 29.323-9.053 38.095-3.605 34.508-5.781 81.126-.356 114.786-6.341 45.18-4.991 98.593-.716 140.299 3.262 31.819-.156 68.755-1.34 79.817 2.968 2.88 4.837 7.066 4.837 11.721 0 5.885-2.987 11.02-7.405 13.715 2.692 1.96 4.422 5.01 4.422 8.431 0 5.908-5.158 10.705-11.512 10.705s-11.512-4.797-11.512-10.705c0-3.421 1.73-6.471 4.422-8.431-4.418-2.695-7.405-7.83-7.405-13.715 0-4.655 1.869-8.841 4.837-11.721-1.184-11.062-4.602-47.998-1.34-79.817 4.275-41.706 5.625-95.119-.716-140.299 5.425-33.66 3.249-80.278-.356-114.786-.917-8.772-5.243-22.872-9.053-38.095 10.788-19.182 16.741-41.966 16.606-68.557a8.374 8.374 0 0 0-2.453-5.879c-5.121-5.122-9.289-13.786-14.411-18.907a8.367 8.367 0 0 0-2.717-1.816c5.531-2.662 10.354-5.486 14.22-8.45a8.375 8.375 0 0 0 3.279-6.646c0-17.572-7.957-29.27-18.455-41.066a8.377 8.377 0 0 0-4.12-2.53c-2.305-.608-4.558-1.197-6.765-1.768z"/></svg>