<?xml version="1.0" encoding="UTF-8" standalone="no"?><!DOCTYPE svg PUBLIC "-//W3C//DTD SVG 1.1//EN" "http://www.w3.org/Graphics/SVG/1.1/DTD/svg11.dtd"><svg width="100%" height="100%" viewBox="0 0 2134 1479" version="1.1" xmlns="http://www.w3.org/2000/svg" xmlns:xlink="http://www.w3.org/1999/xlink" xml:space="preserve" xmlns:serif="http://www.serif.com/" style="fill-rule:evenodd;clip-rule:evenodd;stroke-linejoin:round;stroke-miterlimit:2;"><rect id="Artboard1" x="0" y="0" width="2133.33" height="1478.58" style="fill:none;"/><g><path d="M2070.83,615.826l0,796.406l-1390,-0l-618.332,-356.994l-0,-988.888l1056.61,0l951.719,549.476Z" style="fill:#153677;"/><g><g transform="matrix(304.702,0,0,304.702,1592.21,1278.74)"></g><text x="698.826px" y="1278.74px" style="font-family:'MarvinVisions-Bold', 'Marvin Visions';font-weight:800;font-size:304.702px;fill:#fff;">.<tspan x="742.093px " y="1278.74px ">G</tspan>AME<tspan x="1452.66px " y="1278.74px ">S</tspan></text><g transform="matrix(304.702,0,0,304.702,1927.72,1001.32)"></g><text x="742.123px" y="1001.32px" style="font-family:'MarvinVisions-Bold', 'Marvin Visions';font-weight:800;font-size:304.702px;fill:#ead377;">meadow</text><g transform="matrix(304.702,0,0,304.702,1598.94,719.318)"></g><text x="742.123px" y="719.318px" style="font-family:'MarvinVisions-Bold', 'Marvin Visions';font-weight:800;font-size:304.702px;fill:#ead377;">Br<tspan x="1046.82px " y="719.318px ">o</tspan>ad</text></g><g><path d="M643.854,248.017c6.132,7.058 11.189,14.113 12.322,23.867c-24.641,15.921 -78.973,26.242 -112.065,27.971c-0.812,0.043 -1.614,0.203 -2.38,0.477c-123.549,44.12 -242.858,0.367 -295.872,-25.72c-9.162,-4.509 -16.277,-8.519 -21.241,-12.435c-3.259,-2.571 -5.57,-4.705 -6.009,-7.298c-0.377,-2.229 1.04,-4.324 3.142,-6.924c3.64,-4.502 9.508,-9.41 17.535,-15.165c11.499,-8.243 26.834,-11.336 52.728,-10.951c28.177,0.419 67.947,5.152 126.849,13.326c0.498,0.069 1.003,0.093 1.506,0.071c133.082,-5.648 155.484,-5.034 223.485,12.781Z" style="fill:#fff;"/><path d="M649.596,308.371c3.025,3.95 5.829,8.725 8.884,12.56c-0.94,60.729 -38.877,98.087 -92.959,116.13c-57.197,19.082 -132.062,16.969 -202.407,-2.014c-0.518,-0.139 -1.049,-0.229 -1.584,-0.267c-46.354,-3.319 -90.682,-11.959 -110.845,-19.564c-8.532,-3.218 -14.371,-6.568 -18.001,-10.154c-2.306,-2.278 -3.519,-4.485 -3.534,-6.758c-0.022,-3.125 1.806,-6.011 4.068,-8.689c4.578,-5.422 11.406,-9.771 16.716,-12.029c33.172,-14.105 84.174,-26.865 200.119,-32.039c0.766,-0.034 1.523,-0.173 2.251,-0.413c55.379,-18.275 111.679,-13.605 197.292,-36.763Z" style="fill:#fff;"/><path d="M715.669,248.017c68,-17.815 90.402,-18.429 223.484,-12.781c0.503,0.022 1.008,-0.002 1.506,-0.071c58.902,-8.174 98.672,-12.907 126.849,-13.326c25.894,-0.385 41.229,2.708 52.728,10.951c8.027,5.755 13.895,10.663 17.535,15.165c2.102,2.6 3.519,4.695 3.142,6.924c-0.439,2.593 -2.75,4.727 -6.009,7.298c-4.964,3.916 -12.079,7.926 -21.241,12.435c-53.014,26.087 -172.323,69.84 -295.872,25.72c-0.766,-0.274 -1.568,-0.434 -2.38,-0.477c-33.092,-1.729 -87.423,-12.05 -112.064,-27.969c1.132,-9.756 6.189,-16.811 12.322,-23.869Z" style="fill:#fff;"/><path d="M709.927,308.371c85.612,23.158 141.912,18.488 197.291,36.763c0.728,0.24 1.485,0.379 2.251,0.413c115.945,5.174 166.947,17.934 200.119,32.039c5.31,2.258 12.138,6.607 16.716,12.029c2.262,2.678 4.09,5.564 4.068,8.689c-0.015,2.273 -1.228,4.48 -3.534,6.758c-3.63,3.586 -9.469,6.936 -18.001,10.154c-20.163,7.605 -64.491,16.245 -110.845,19.564c-0.535,0.038 -1.066,0.128 -1.584,0.267c-70.345,18.983 -145.21,21.096 -202.407,2.014c-54.082,-18.043 -92.019,-55.401 -92.958,-116.129c3.054,-3.836 5.858,-8.611 8.884,-12.561Z" style="fill:#fff;"/><path d="M643.822,230.7c0.864,-3.73 2.692,-7.206 5.28,-10.271c-10.378,-3.287 -17.724,-11.375 -17.724,-20.823c0,-12.359 12.572,-22.393 28.057,-22.393c0.901,0 1.792,0.034 2.672,0.101l-0,-7.729c-0,0 11.769,3.261 17.654,3.261c5.885,-0 17.654,-3.261 17.654,-3.261l0,7.729c0.88,-0.067 1.771,-0.101 2.672,-0.101c15.485,0 28.057,10.034 28.057,22.393c-0,9.448 -7.346,17.536 -17.724,20.823c2.588,3.065 4.416,6.541 5.28,10.271c-2.207,0.571 -4.46,1.16 -6.765,1.768c-1.592,0.42 -3.025,1.3 -4.12,2.53c-10.498,11.796 -18.455,23.494 -18.455,41.066c0,2.605 1.212,5.061 3.279,6.646c3.866,2.964 8.689,5.788 14.22,8.45c-1,0.414 -1.926,1.025 -2.717,1.816c-5.121,5.121 -9.29,13.785 -14.411,18.906c-1.56,1.561 -2.442,3.673 -2.453,5.88c-0.135,26.591 5.818,49.375 16.606,68.557c-3.81,15.223 -8.136,29.322 -9.053,38.095c-3.605,34.508 -5.781,81.126 -0.356,114.785c-6.341,45.181 -4.991,98.594 -0.716,140.3c3.262,31.819 -0.156,68.755 -1.34,79.817c2.968,2.88 4.837,7.065 4.837,11.721c-0,5.885 -2.987,11.02 -7.405,13.715c2.692,1.96 4.422,5.009 4.422,8.431c0,5.908 -5.158,10.705 -11.512,10.705c-6.354,-0 -11.512,-4.797 -11.512,-10.705c-0,-3.422 1.73,-6.471 4.422,-8.431c-4.418,-2.695 -7.405,-7.83 -7.405,-13.715c0,-4.656 1.869,-8.841 4.837,-11.721c-1.184,-11.062 -4.602,-47.998 -1.34,-79.817c4.275,-41.706 5.625,-95.119 -0.716,-140.3c5.425,-33.659 3.249,-80.277 -0.356,-114.785c-0.917,-8.773 -5.243,-22.872 -9.053,-38.095c10.788,-19.182 16.741,-41.966 16.606,-68.557c-0.011,-2.207 -0.893,-4.319 -2.453,-5.88c-5.121,-5.121 -9.289,-13.785 -14.411,-18.906c-0.791,-0.791 -1.717,-1.402 -2.717,-1.816c5.531,-2.662 10.354,-5.486 14.22,-8.45c2.067,-1.585 3.279,-4.041 3.279,-6.646c-0,-17.572 -7.957,-29.27 -18.455,-41.066c-1.095,-1.23 -2.528,-2.11 -4.12,-2.53c-2.305,-0.608 -4.558,-1.197 -6.765,-1.768Z" style="fill:#ead377;"/></g></g></svg>